# xmcd
#
# Track frame offsets:
#	150
#	17744
#	36350
#	53545
#	67555
#	87234
#	101026
#	116010
#	134899
#	154220
#	167259
#
# Disc length: 2446 seconds
# Revision: 0
# Processed by: cddbd v1.5.2PL0 Copyright (c) Steve Scherf et al.
# Submitted via: dBpowerAMP V12.0
#
DISCID=88098c0b
DTITLE=Marcus Bonfanti - Shake The Walls
DYEAR=2013
DGENRE=Blues
TTITLE0=Alley Cat
TTITLE1=Cheap Whisky
TTITLE2=We All Do Bad Sometimes
TTITLE3=Honest Boy
TTITLE4=Jezebel
TTITLE5=Stone Me Sober
TTITLE6=My Baby Don't Dance
TTITLE7=Blind Alley
TTITLE8=Honey
TTITLE9=Bang Of A Gun
TTITLE10=The Bittersweet
EXTD=
EXTT0=
EXTT1=
EXTT2=
EXTT3=
EXTT4=
EXTT5=
EXTT6=
EXTT7=
EXTT8=
EXTT9=
EXTT10=
PLAYORDER=
